<?xml version="1.0" standalone="no"?>
<!DOCTYPE svg PUBLIC "-//W3C//DTD SVG 20010904//EN"
 "http://www.w3.org/TR/2001/REC-SVG-20010904/DTD/svg10.dtd">
<svg version="1.0" xmlns="http://www.w3.org/2000/svg"
 width="300.000000pt" height="300.000000pt" viewBox="0 0 300.000000 300.000000"
 preserveAspectRatio="xMidYMid meet">
<metadata>
Created by potrace 1.10, written by Peter Selinger 2001-2011
</metadata>
<g transform="translate(0.000000,300.000000) scale(0.100000,-0.100000)"
fill="#000000" stroke="none">
<path d="M821 2437 c-54 -27 -374 -501 -386 -572 -4 -22 -21 -60 -37 -85 -58
-89 -108 -303 -108 -460 0 -90 -2 -99 -20 -105 -30 -9 -43 -42 -36 -89 5 -28
1 -58 -13 -96 -27 -81 -70 -166 -92 -186 -34 -30 -20 -82 29 -108 15 -9 50
-36 77 -61 80 -74 164 -125 206 -125 20 0 73 58 99 109 17 34 40 63 60 74 52
31 90 93 90 146 -1 25 -7 60 -14 76 -12 28 -11 33 24 75 51 62 75 105 96 173
10 31 23 57 29 57 7 0 28 -33 49 -74 56 -114 159 -201 361 -306 122 -63 188
-74 390 -67 279 9 446 82 566 248 38 51 45 58 54 43 6 -9 28 -40 51 -68 38
-48 40 -53 28 -81 -7 -17 -13 -51 -14 -76 0 -53 38 -115 90 -146 20 -11 43
-40 60 -74 29 -56 79 -109 104 -109 30 0 136 64 191 116 33 31 72 62 87 70 55
28 61 69 19 122 -50 63 -96 187 -94 256 2 67 -7 92 -37 101 -18 6 -20 15 -20
105 0 157 -50 371 -108 460 -16 25 -33 63 -37 85 -13 75 -333 546 -389 574
-36 17 -92 2 -125 -33 -18 -19 -30 -24 -52 -19 -28 5 -94 -26 -101 -48 -2 -6
-19 -4 -43 6 -123 52 -426 79 -555 50 -41 -9 -84 -17 -95 -18 -22 -2 -97 -53
-157 -106 -26 -23 -38 -29 -38 -18 0 18 55 67 76 67 26 0 14 28 -22 50 -24 15
-44 20 -63 17 -21 -5 -34 -1 -47 15 -19 21 -73 48 -96 48 -7 0 -24 -6 -37 -13z
m43 -49 c-23 -24 -57 -63 -76 -88 -85 -108 -278 -436 -278 -471 0 -8 29 38 64
101 86 156 222 362 287 434 l53 59 23 -27 c43 -51 41 -71 -15 -130 -57 -61
-236 -325 -226 -335 4 -3 9 -1 11 5 2 6 10 20 18 30 13 18 14 17 11 -13 -2
-21 2 -37 12 -45 13 -11 14 -8 8 23 -6 32 -2 42 35 88 23 29 39 54 37 57 -3 2
-18 -12 -33 -31 -42 -56 -41 -34 2 31 29 44 39 53 42 38 2 -10 7 -24 12 -30 6
-7 -1 -33 -20 -70 -42 -86 -81 -200 -81 -238 0 -18 -7 -41 -15 -52 -8 -10 -15
-26 -15 -36 0 -9 -6 -19 -12 -21 -10 -4 -10 -6 0 -6 7 -1 16 9 21 21 6 16 10
-1 14 -57 3 -43 4 -83 1 -87 -16 -25 -127 4 -167 43 -25 26 -29 35 -24 69 3
23 1 38 -4 34 -5 -3 -9 -22 -9 -43 0 -71 66 -121 157 -121 55 1 162 40 238 88
56 35 70 34 34 -4 -32 -34 -167 -98 -250 -118 -81 -20 -132 -20 -195 -1 -58
18 -54 17 -54 6 0 -18 73 -33 149 -33 78 1 161 23 265 73 49 22 126 91 126
111 0 14 57 2 87 -17 23 -15 32 -55 13 -55 -6 0 -29 9 -51 21 -23 11 -38 16
-34 10 3 -6 24 -20 46 -31 21 -11 39 -24 39 -29 0 -21 -57 -92 -123 -154 -110
-103 -223 -147 -380 -147 -56 0 -87 -7 -87 -19 0 -8 183 5 233 18 20 5 37 5
37 0 0 -28 -48 -127 -86 -179 -41 -56 -47 -60 -83 -60 -69 0 -285 127 -286
168 -1 10 -6 16 -12 15 -6 -1 -14 4 -17 12 -3 9 1 15 9 15 18 0 20 17 4 22
-17 6 -17 179 -1 253 21 95 62 238 77 264 l13 25 7 -32 c10 -45 21 -40 17 8
-3 25 0 40 7 40 6 0 11 -4 11 -10 0 -5 5 -10 11 -10 7 0 5 10 -5 25 -21 32
-20 38 7 30 21 -6 21 -5 3 9 -14 11 -17 22 -11 43 10 41 96 182 198 323 50 69
106 146 124 172 38 52 44 56 93 57 l34 1 -40 -42z m1311 36 c8 -4 37 -36 62
-73 26 -36 77 -106 113 -156 83 -112 186 -281 196 -318 5 -21 2 -32 -12 -43
-18 -14 -18 -15 4 -9 25 7 28 -2 7 -29 -22 -29 -18 -42 6 -20 l21 19 -4 -42
c-4 -50 7 -57 17 -12 9 42 18 28 54 -91 44 -145 64 -271 56 -351 -4 -38 -11
-69 -16 -69 -5 0 -9 -4 -9 -10 0 -5 7 -10 15 -10 8 0 12 -6 9 -15 -3 -8 -11
-13 -17 -12 -7 1 -11 -5 -10 -13 6 -37 -220 -170 -288 -170 -36 0 -42 5 -84
61 -25 34 -45 66 -45 73 0 6 10 30 22 53 l22 41 55 -4 c31 -3 73 -6 94 -8 37
-4 50 7 21 18 -9 3 -43 6 -77 6 -82 0 -183 23 -243 53 -69 35 -183 134 -221
191 -18 27 -33 52 -33 57 0 4 16 15 35 24 19 9 40 24 47 32 9 11 1 10 -29 -6
-52 -26 -63 -26 -63 -1 0 23 33 47 76 56 25 5 32 1 47 -25 46 -78 249 -165
383 -164 74 1 144 17 144 34 0 6 -9 7 -22 3 -87 -27 -141 -30 -219 -10 -129
34 -247 94 -270 139 -11 19 -10 19 20 -2 53 -38 180 -92 231 -98 71 -8 115 3
155 41 29 28 35 40 35 74 0 22 -4 43 -9 47 -6 3 -8 -8 -4 -28 3 -19 0 -44 -7
-56 -10 -20 -65 -61 -81 -61 -4 0 -10 42 -14 93 -4 50 -17 129 -30 174 -21 78
-21 82 -4 72 14 -7 19 -21 20 -52 0 -23 4 -51 9 -62 5 -13 7 1 5 41 -1 33 -8
70 -14 82 -7 14 -8 23 -1 27 13 8 13 25 -1 25 -5 0 -8 -4 -5 -9 8 -12 -17 -31
-30 -23 -12 9 -36 63 -30 69 2 3 11 -8 20 -24 8 -16 15 -21 16 -13 0 23 -174
277 -227 332 -51 51 -52 71 -11 123 l22 28 58 -64 c65 -71 218 -304 294 -447
27 -51 50 -88 52 -82 8 23 -189 359 -276 470 -19 25 -53 64 -76 88 l-40 42 31
0 c17 0 39 -3 48 -6z m-519 -49 c104 -17 226 -52 236 -69 15 -22 8 -44 -40
-127 l-48 -84 -155 -6 c-85 -3 -166 -9 -180 -13 -25 -7 -30 -2 -93 102 -36 60
-66 118 -66 128 0 11 9 34 20 52 l20 32 107 0 c60 0 149 -7 199 -15z m-601
-17 c24 -11 34 -28 16 -28 -5 0 -25 -15 -45 -33 -28 -27 -34 -39 -29 -58 6
-22 5 -23 -10 -10 -16 12 -22 9 -58 -29 -23 -24 -49 -56 -59 -72 -17 -28 -18
-28 -23 -7 -6 24 20 63 100 151 35 39 42 52 37 73 -5 22 -3 25 19 25 15 0 38
-5 52 -12z m961 -13 c-5 -19 4 -35 47 -83 54 -62 186 -245 194 -272 6 -19 -27
20 -77 90 -50 72 -260 276 -224 219 5 -8 1 -8 -14 0 -12 6 -23 15 -26 19 -12
20 34 51 78 52 25 0 27 -3 22 -25z m-725 -61 c8 -10 41 -62 74 -117 l60 -99
-56 -113 c-41 -83 -58 -130 -63 -174 l-7 -60 -89 -49 c-81 -46 -89 -48 -104
-33 -12 12 -36 16 -88 17 l-71 0 -53 57 -52 56 5 83 c3 46 10 85 14 88 4 3 4
12 -1 20 -29 46 22 131 154 258 l86 82 89 0 c70 0 91 -3 102 -16z m742 -69
c116 -98 274 -329 251 -367 -4 -7 -30 -41 -56 -75 l-49 -62 -42 15 c-23 8 -84
21 -136 29 -52 8 -95 16 -97 18 -4 4 -78 239 -87 278 -5 20 5 46 44 115 29 49
57 92 63 96 24 16 47 6 109 -47z m-1053 -2 c-1 -13 -110 -127 -110 -116 0 11
30 54 69 96 24 26 41 35 41 20z m786 -171 c14 -8 84 -228 84 -260 0 -30 -75
-110 -126 -134 -27 -12 -47 -30 -54 -48 -6 -16 -18 -31 -27 -34 -8 -3 -11 -10
-8 -16 3 -5 -1 -10 -10 -10 -10 0 -15 6 -12 13 3 7 -3 13 -12 14 -16 1 -225
125 -249 148 -22 20 2 118 53 222 49 100 45 96 145 106 69 7 205 7 216 -1z
m-933 -159 c-3 -49 -10 -93 -15 -99 -10 -14 -58 -25 -58 -14 0 30 63 200 74
200 2 0 1 -39 -1 -87z m1461 -135 c3 -13 6 -58 6 -100 0 -118 -35 -118 -60 1
-12 56 -11 61 9 90 27 37 37 39 45 9z m-198 -29 c44 -11 84 -26 90 -34 12 -16
38 -124 31 -131 -6 -7 -95 34 -159 74 -50 30 -64 34 -103 29 -50 -5 -95 -38
-95 -69 0 -62 100 -189 210 -266 36 -25 69 -49 73 -52 5 -4 -24 -35 -63 -69
-62 -53 -77 -61 -111 -61 -27 0 -38 -4 -33 -11 3 -6 17 -9 30 -6 20 3 22 2 13
-9 -6 -8 -16 -14 -21 -14 -17 0 -262 90 -272 100 -5 5 -17 75 -28 157 l-18
148 42 34 c24 19 81 74 128 123 l85 89 61 -6 c34 -3 97 -14 140 -26z m-1232
-29 c20 -22 36 -45 36 -50 0 -15 -86 -54 -104 -47 -12 5 -16 20 -16 65 0 32 3
62 7 65 16 16 43 4 77 -33z m565 -74 c75 -46 150 -90 166 -99 30 -15 30 -15
48 -165 11 -83 16 -155 13 -161 -4 -5 -57 -42 -119 -81 -62 -39 -120 -76 -129
-82 -14 -10 -32 -5 -100 31 -80 42 -291 165 -314 183 -9 6 -8 26 2 74 11 52
22 75 49 102 41 43 95 141 95 173 0 19 15 33 73 66 39 23 74 42 76 42 2 1 65
-37 140 -83z m303 4 c-12 -5 -25 -16 -28 -25 -7 -18 -24 -20 -24 -2 0 21 22
37 50 36 25 0 25 0 2 -9z m505 -377 l43 -6 -37 -71 c-26 -50 -62 -97 -124
-158 -49 -49 -92 -88 -96 -88 -5 0 -18 38 -30 85 l-20 84 96 85 c57 50 102 83
111 80 8 -3 33 -8 57 -11z m-1114 -97 c78 -46 168 -97 199 -113 32 -15 60 -35
62 -43 3 -8 8 -48 11 -87 l7 -73 -54 16 c-134 39 -385 217 -447 318 -26 42
-26 46 2 46 12 0 29 5 37 10 8 5 21 10 28 10 7 0 77 -38 155 -84z m-833 45 c0
-5 17 -27 37 -48 20 -21 37 -42 38 -48 0 -5 8 -9 17 -7 9 1 22 -7 28 -19 7
-11 14 -18 17 -15 3 2 32 -9 65 -27 33 -17 81 -34 106 -37 56 -6 72 -29 72
-109 0 -53 -2 -56 -54 -107 -61 -59 -107 -74 -231 -75 -115 -1 -181 17 -232
64 -29 26 -29 42 0 81 13 17 40 70 60 117 31 72 37 98 37 156 0 38 3 73 7 76
10 10 33 8 33 -2z m2461 -81 c6 -90 46 -201 95 -267 31 -41 30 -56 -7 -87 -50
-42 -127 -59 -248 -54 -123 5 -165 22 -224 87 -33 36 -37 47 -37 94 0 78 16
101 72 107 25 3 73 20 106 37 33 18 62 29 65 27 3 -3 10 4 17 15 6 12 19 20
28 19 9 -2 17 2 17 7 1 6 18 27 38 48 20 21 37 43 37 48 0 6 8 9 18 7 14 -3
18 -18 23 -88z m-941 -4 c67 -24 124 -46 127 -49 11 -12 34 -130 26 -138 -14
-12 -145 -48 -218 -58 -39 -6 -118 -11 -176 -11 -127 0 -134 4 -134 93 l0 59
120 74 c66 40 123 73 127 74 4 0 62 -20 128 -44z m-1465 -423 c39 -3 97 0 129
6 33 6 61 9 63 7 7 -6 -23 -60 -53 -95 -30 -36 -52 -38 -109 -12 -43 19 -153
117 -120 106 11 -4 52 -9 90 -12z m2275 2 c41 0 91 3 110 7 l35 7 -54 -49
c-66 -60 -130 -88 -166 -72 -13 6 -36 30 -50 52 -44 69 -43 72 6 63 24 -4 78
-8 119 -8z"/>
<path d="M660 1937 c0 -9 5 -19 10 -22 7 -4 6 -14 -2 -28 -16 -30 -22 -145 -6
-129 6 6 10 32 10 57 -2 34 3 49 18 62 20 17 28 39 11 29 -9 -6 -39 23 -33 31
2 3 1 7 -2 11 -3 3 -6 -2 -6 -11z"/>
<path d="M396 1645 c4 -38 11 -74 16 -80 7 -7 8 12 3 55 -9 91 -27 114 -19 25z"/>
<path d="M679 1622 c13 -24 51 -49 51 -33 0 5 -14 20 -31 32 -31 22 -31 22
-20 1z"/>
<path d="M379 1615 c-4 -5 -4 -28 0 -50 4 -22 9 -35 12 -30 7 14 -5 92 -12 80z"/>
<path d="M426 1389 c-10 -33 13 -88 50 -122 41 -38 44 -23 4 18 -26 26 -36 47
-40 83 -6 41 -7 44 -14 21z"/>
<path d="M451 1366 c-1 -25 35 -82 56 -91 14 -5 13 -1 -4 17 -12 13 -28 39
-36 58 -10 23 -16 28 -16 16z"/>
<path d="M2597 1696 c-12 -30 -20 -141 -9 -131 5 6 12 40 16 78 6 65 4 82 -7
53z"/>
<path d="M2608 1579 c-2 -22 0 -43 4 -45 4 -3 8 5 8 18 0 13 3 33 6 46 4 12 2
22 -4 22 -5 0 -12 -18 -14 -41z"/>
<path d="M2558 1365 c-5 -37 -14 -55 -44 -86 -21 -21 -33 -39 -27 -39 6 0 25
14 42 31 36 36 58 98 44 124 -8 14 -11 8 -15 -30z"/>
<path d="M2532 1350 c-7 -19 -22 -45 -34 -58 -17 -18 -18 -22 -5 -17 23 9 59
71 55 92 -3 13 -8 7 -16 -17z"/>
<path d="M1911 1727 c-14 -6 -27 -18 -29 -26 -4 -11 1 -10 19 2 13 10 32 17
42 17 10 0 15 5 12 10 -8 13 -15 12 -44 -3z"/>
<path d="M1259 1653 c-13 -15 -12 -15 7 -5 12 6 26 7 35 1 22 -14 33 -11 19 6
-16 20 -44 19 -61 -2z"/>
<path d="M1425 1080 c-10 -11 -27 -20 -39 -20 -14 0 -17 -3 -9 -11 12 -12 41
-1 63 26 19 23 6 28 -15 5z"/>
<path d="M293 1038 c-5 -7 -22 -48 -37 -91 -26 -74 -26 -80 -11 -103 31 -47
106 -56 220 -28 122 31 149 91 60 132 -27 13 -80 41 -116 63 -68 41 -100 48
-116 27z m98 -37 c25 -15 73 -41 107 -56 66 -30 77 -49 44 -78 -39 -35 -184
-64 -236 -47 -59 19 -62 29 -31 125 31 99 42 104 116 56z"/>
<path d="M334 985 c22 -17 120 -55 139 -55 7 0 -24 16 -67 35 -86 38 -101 42
-72 20z"/>
<path d="M350 947 c8 -9 94 -37 98 -32 3 3 -7 9 -22 15 -37 14 -82 24 -76 17z"/>
<path d="M334 904 c20 -14 84 -30 91 -22 3 3 -21 12 -52 21 -47 13 -54 13 -39
1z"/>
<path d="M300 892 c0 -11 67 -48 74 -41 3 2 -13 15 -35 27 -21 12 -39 19 -39
14z"/>
<path d="M2620 1028 c-19 -13 -71 -41 -115 -63 -91 -46 -104 -69 -60 -109 46
-42 206 -70 269 -46 14 5 32 20 41 34 15 23 15 29 -11 103 -15 43 -32 84 -37
91 -14 18 -48 15 -87 -10z m105 -83 c31 -96 28 -106 -31 -125 -52 -17 -197 12
-236 47 -33 29 -22 48 44 78 34 15 82 41 107 56 74 48 85 43 116 -56z"/>
<path d="M2590 964 c-83 -37 -81 -45 3 -14 51 19 103 50 82 49 -5 -1 -44 -16
-85 -35z"/>
<path d="M2593 937 c-17 -7 -35 -16 -40 -21 -5 -5 0 -6 12 -2 11 5 35 12 53
18 32 9 43 19 20 17 -7 0 -27 -6 -45 -12z"/>
<path d="M2620 900 c-33 -11 -46 -18 -32 -19 24 -1 92 24 92 33 0 4 -1 6 -2 5
-2 -1 -28 -9 -58 -19z"/>
<path d="M2655 875 c-22 -14 -34 -25 -27 -25 18 0 72 32 72 42 0 11 1 11 -45
-17z"/>
</g>
</svg>
